<svg width="427" height="318" viewBox="0 0 427 318" fill="none" xmlns="http://www.w3.org/2000/svg">
<g style="mix-blend-mode:luminosity">
<path fill-rule="evenodd" clip-rule="evenodd" d="M80.8294 12.7786C91.3362 3.72336 104.328 0.5 115.411 0.5C123.324 0.5 131.164 3.50016 136.921 6.10242C143.157 8.92106 149.604 12.5495 155.234 15.7925C156.488 16.5146 157.694 17.2131 158.856 17.8861L158.871 17.8948L158.871 17.8952L158.872 17.8954C163.231 20.4203 166.972 22.5876 170.312 24.3091C172.379 25.3744 173.845 26.0312 174.815 26.3907L174.851 26.4037C178.261 26.3473 180.563 26.0513 184.112 25.595L184.113 25.5949C184.956 25.4866 185.868 25.3693 186.882 25.244C192.83 24.5093 200.295 23.8105 213.312 23.8105C226.33 23.8105 233.795 24.5093 239.742 25.244C240.757 25.3694 241.67 25.4867 242.512 25.595C246.061 26.0513 248.363 26.3473 251.774 26.4037L251.809 26.3907C252.779 26.0312 254.245 25.3744 256.312 24.3091C259.652 22.5876 263.394 20.42 267.753 17.8951L267.754 17.8948L267.756 17.8937C268.922 17.2183 270.132 16.5173 271.39 15.7925C277.02 12.5495 283.468 8.92106 289.704 6.10242C295.461 3.50016 303.3 0.5 311.213 0.5C322.297 0.5 335.288 3.72336 345.795 12.7786C356.785 22.2504 363.115 36.4384 363.115 54.2756V85.363L363.115 85.3807C363.105 90.607 362.248 100.959 359.23 109.81C358.482 112.003 357.32 114.985 355.468 118.011C359.62 127.138 361.659 136.416 362.624 145.265C363.714 155.251 363.465 166.046 363.258 175.005C363.184 178.21 363.115 181.179 363.115 183.793C363.115 184.356 363.11 184.915 363.1 185.471C363.71 185.616 364.316 185.763 364.916 185.912C371.509 187.555 378.567 189.763 385.243 192.111C397.99 196.595 411.56 202.375 418.172 206.679C426.272 211.952 428.564 222.792 423.291 230.892C418.018 238.992 407.178 241.284 399.078 236.011C396.256 234.174 386.145 229.531 373.628 225.128C367.672 223.033 361.702 221.181 356.457 219.875C355.955 219.75 355.469 219.632 354.999 219.521C352.402 224.758 349.265 229.592 345.709 234.044C352.559 236.143 358.927 239.179 364.058 241.902C372.221 246.234 379.794 251.214 384.522 254.323L384.526 254.325C385.319 254.846 386.032 255.315 386.655 255.72C394.759 260.985 397.061 271.823 391.796 279.928C386.531 288.033 375.692 290.335 367.588 285.07C366.789 284.552 365.945 283.998 365.059 283.416L365.051 283.411L365.051 283.411C360.252 280.262 354.226 276.308 347.65 272.818C339.287 268.379 333.121 266.431 329.855 266.431C327.723 266.431 325.681 266.049 323.791 265.351C320.907 268.844 317.847 272.213 314.617 275.443C288.054 302.006 252.121 317.073 214.557 317.399C176.993 317.726 140.804 303.285 113.783 277.188C109.907 273.444 106.252 269.491 102.834 265.351C100.945 266.049 98.9016 266.431 96.7695 266.431C93.5038 266.431 87.3379 268.379 78.9747 272.818C72.3991 276.308 66.373 280.262 61.5743 283.411L61.5738 283.411L61.5611 283.419C60.6767 284 59.834 284.553 59.0374 285.07C50.9324 290.335 40.0938 288.033 34.8286 279.928C29.5634 271.823 31.8655 260.985 39.9704 255.72C40.5936 255.315 41.3079 254.845 42.1025 254.323L42.1028 254.322C46.8312 251.213 54.4042 246.234 62.5672 241.902C67.6982 239.179 74.0655 236.143 80.9156 234.044C77.381 229.619 74.2601 224.817 71.6728 219.616C66.3551 220.972 60.3659 222.81 54.3959 224.861C40.9733 229.472 30.2536 234.253 27.5335 236.02C19.4285 241.285 8.58993 238.983 3.32473 230.879C-1.94046 222.774 0.361586 211.935 8.4665 206.67C15.1995 202.296 29.6751 196.345 43.025 191.759C49.7923 189.435 56.9048 187.242 63.5266 185.574C63.515 184.984 63.5092 184.39 63.5092 183.793C63.5092 181.182 63.4406 178.215 63.3666 175.012C63.1596 166.055 62.9101 155.26 64 145.271C64.9657 136.421 67.0049 127.139 71.158 118.008C69.3074 114.981 68.1463 112 67.3997 109.809C64.3849 100.961 63.5304 90.6206 63.5093 85.4329L63.5092 85.3974V54.2756C63.5092 36.4383 69.8392 22.2504 80.8294 12.7786ZM101.64 84.3915C104.878 80.3621 108.338 76.5031 112.008 72.8335C121.279 63.5622 131.759 55.6276 143.142 49.2328C142.395 48.8014 141.653 48.3711 140.919 47.9454L140.91 47.9402C139.841 47.3207 138.789 46.7107 137.765 46.121C132.148 42.8856 127.018 40.0357 122.505 37.9956C120.278 36.9893 118.484 36.3107 117.093 35.9016C116.024 35.5867 115.48 35.5176 115.366 35.5032L115.366 35.5032L115.366 35.5031C115.353 35.5015 115.346 35.5006 115.344 35.5001C110.573 35.5135 106.39 36.9547 103.679 39.2909C101.439 41.2216 98.5092 45.1714 98.5092 54.2756V85.3204C98.5101 85.4806 98.5131 85.6602 98.5186 85.8577C99.5234 85.258 100.569 84.7701 101.64 84.3915ZM283.483 49.2327C295.594 56.0364 306.675 64.5789 316.362 74.6093C319.396 77.7503 322.272 81.0153 324.986 84.3918C326.056 84.7705 327.102 85.2586 328.107 85.8585C328.112 85.6608 328.115 85.4816 328.115 85.3225V54.2756C328.115 45.1714 325.186 41.2216 322.946 39.2909C320.235 36.9547 316.052 35.5135 311.28 35.5001C311.279 35.5006 311.271 35.5015 311.258 35.5032C311.145 35.5176 310.601 35.5867 309.531 35.9016C308.141 36.3107 306.346 36.9893 304.12 37.9956C299.606 40.0357 294.477 42.8856 288.86 46.121C287.836 46.7104 286.785 47.32 285.716 47.9392L285.715 47.9403L285.712 47.9415C284.976 48.3685 284.231 48.8 283.483 49.2327ZM251.165 26.6025C251.166 26.6013 251.197 26.5921 251.257 26.5784C251.194 26.5968 251.164 26.6037 251.165 26.6025ZM175.46 26.6025C175.46 26.6037 175.43 26.5968 175.367 26.5784C175.428 26.5921 175.459 26.6013 175.46 26.6025ZM329.75 175.899C329.75 206.313 317.668 235.481 296.162 256.987C274.656 278.494 245.487 290.576 215.073 290.576C184.659 290.576 155.49 278.494 133.984 256.987C112.478 235.481 100.396 206.313 100.396 175.899C100.396 145.484 112.478 116.316 133.984 94.8099C155.49 73.3038 184.659 61.2218 215.073 61.2218C245.487 61.2218 274.656 73.3038 296.162 94.8099C317.668 116.316 329.75 145.484 329.75 175.899ZM186.565 125.828C179.916 122.504 172.093 127.339 172.093 134.772V217.025C172.093 224.459 179.916 229.294 186.565 225.969L268.818 184.843C276.188 181.158 276.188 170.64 268.818 166.954L186.565 125.828Z" fill="white"/>
</g>
</svg>
